<svg xmlns="http://www.w3.org/2000/svg" width="66" height="66.024" viewBox="0 0 66 66.024">
  <g id="Group_1201" data-name="Group 1201" transform="translate(-24 -91.794)">
    <rect id="Rectangle_33" data-name="Rectangle 33" width="66" height="66" rx="4" transform="translate(24 91.794)" fill="#dcdce3"/>
    <path id="man" d="M60.52,58.984l-1.514-6.055a8.792,8.792,0,0,0-5.765-6.254l-11.1-3.7c-2.707-1.128-3.946-5.487-4.213-7.143a10.49,10.49,0,0,0,3.709-6.82,2.057,2.057,0,0,1,.305-1.3,1.261,1.261,0,0,0,.865-.757,18.857,18.857,0,0,0,1.352-5.513,1.212,1.212,0,0,0-.038-.305A3.245,3.245,0,0,0,42.9,19.3V12.615c0-4.065-1.241-5.732-2.548-6.7C40.1,3.959,38,0,30.282,0A13.155,13.155,0,0,0,17.667,12.615V19.3a3.244,3.244,0,0,0-1.224,1.837,1.213,1.213,0,0,0-.038.305,18.858,18.858,0,0,0,1.352,5.515,1.072,1.072,0,0,0,.757.724c.141.071.406.437.406,1.33a10.488,10.488,0,0,0,3.729,6.832c-.265,1.653-1.5,6.01-4.128,7.11l-11.2,3.719a8.792,8.792,0,0,0-5.762,6.249L.047,58.98a1.262,1.262,0,0,0,1.221,1.572H59.3a1.261,1.261,0,0,0,1.224-1.567Z" transform="translate(26.791 97.267)" fill="#fff"/>
  </g>
</svg>
